<?xml version="1.0" encoding="UTF-8" standalone="no"?>
<svg
   xmlns:dc="http://purl.org/dc/elements/1.1/"
   xmlns:cc="http://creativecommons.org/ns#"
   xmlns:rdf="http://www.w3.org/1999/02/22-rdf-syntax-ns#"
   xmlns:svg="http://www.w3.org/2000/svg"
   xmlns="http://www.w3.org/2000/svg"
   xmlns:sodipodi="http://sodipodi.sourceforge.net/DTD/sodipodi-0.dtd"
   xmlns:inkscape="http://www.inkscape.org/namespaces/inkscape"
   width="300"
   height="300"
   viewBox="0 0 79.374998 79.375002"
   version="1.1"
   id="svg330"
   inkscape:version="1.0.2 (e86c870879, 2021-01-15, custom)"
   sodipodi:docname="empty-photo.svg">
  <defs
     id="defs324" />
  <sodipodi:namedview
     id="base"
     pagecolor="#ffffff"
     bordercolor="#666666"
     borderopacity="1.0"
     inkscape:pageopacity="0.0"
     inkscape:pageshadow="2"
     inkscape:zoom="0.35"
     inkscape:cx="400"
     inkscape:cy="560"
     inkscape:document-units="mm"
     inkscape:current-layer="layer1"
     inkscape:document-rotation="0"
     showgrid="false"
     units="px"
     inkscape:window-width="1366"
     inkscape:window-height="700"
     inkscape:window-x="0"
     inkscape:window-y="32"
     inkscape:window-maximized="1" />
  <metadata
     id="metadata327">
    <rdf:RDF>
      <cc:Work
         rdf:about="">
        <dc:format>image/svg+xml</dc:format>
        <dc:type
           rdf:resource="http://purl.org/dc/dcmitype/StillImage" />
        <dc:title></dc:title>
      </cc:Work>
    </rdf:RDF>
  </metadata>
  <g
     inkscape:label="Layer 1"
     inkscape:groupmode="layer"
     id="layer1">
    <path
       style="fill:#000000;stroke-width:0.352778"
       id="path468"
       d="" />
    <path
       style="fill:#000000;stroke-width:0.352778"
       id="path466"
       d="" />
    <rect
       style="fill:#ffffff;stroke:none;stroke-width:1.011"
       id="rect518"
       width="79.375"
       height="79.375"
       x="0"
       y="-7.1054274e-15" />
    <g
       id="g494"
       transform="matrix(0.30612246,0,0,0.30612246,4.5262557,-4.6364952)"
       style="fill:#e6e6e6">
      <path
         style="fill:#e6e6e6;stroke-width:0.264583"
         d="M -14.785769,144.79171 V 15.145885 H 114.86006 244.50589 V 144.79171 274.43754 h -16.27187 -16.27188 v -21.81902 c 0,-23.24467 -0.068,-24.75019 -1.35158,-29.90702 -0.64967,-2.61013 -2.02539,-6.55271 -3.11823,-8.93631 -0.45202,-0.98591 -0.82185,-1.87195 -0.82185,-1.96898 0,-0.53349 -5.43945,-9.2347 -6.59247,-10.54564 -0.52149,-0.5929 -1.3521,-1.60494 -1.84581,-2.24896 -0.49371,-0.64401 -2.70572,-2.96683 -4.91558,-5.16182 -12.0306,-11.9496 -28.3087,-20.57232 -47.6326,-25.23162 -8.03675,-1.93779 -12.92353,-2.67867 -21.96042,-3.32939 -8.66879,-0.62421 -16.14373,-0.39659 -26.103397,0.7949 -7.001637,0.83761 -15.312678,2.60278 -20.595558,4.37426 -0.800364,0.26838 -2.467239,0.80728 -3.704166,1.19754 -7.504652,2.36781 -15.98807,6.43794 -23.232081,11.14617 -3.533364,2.2965 -9.089225,6.41011 -10.262716,7.5986 -0.304795,0.30869 -2.07682,2.04954 -3.937833,3.86855 -3.569393,3.48883 -6.981478,7.75299 -9.937202,12.41874 -2.096331,3.30915 -2.601656,4.27791 -4.14908,7.95417 -1.794647,4.2636 -2.769539,7.56394 -3.517008,11.90625 -0.493818,2.86876 -0.52384,4.32464 -0.525169,25.46615 l -0.0014,22.42343 H 1.4861056 -14.785769 Z m 140.361459,5.99884 c 6.18908,-1.38408 9.83263,-2.77194 14.94895,-5.69418 4.51015,-2.57602 7.35592,-4.75946 11.25959,-8.63903 6.55211,-6.51166 11.43874,-15.43017 13.69972,-25.00312 1.93408,-8.18881 1.46788,-18.699502 -1.19702,-26.987503 -5.80357,-18.049475 -20.57363,-31.370502 -38.97583,-35.152068 -5.43405,-1.116671 -13.34565,-1.351039 -18.38854,-0.544732 -4.3195,0.690647 -10.020936,2.393 -13.62604,4.068511 -13.917242,6.468182 -24.303773,18.624777 -28.397784,33.237318 -1.429552,5.10242 -1.761387,7.747748 -1.756362,14.001384 0.0046,5.72532 0.223964,7.77211 1.332777,12.43542 1.825887,7.67909 5.792192,15.29263 11.3753,21.8355 2.237261,2.62186 6.993713,6.7386 10.170027,8.80223 1.67349,1.08725 3.465828,2.25855 3.982972,2.60288 0.517144,0.34433 1.022413,0.62605 1.12282,0.62605 0.100404,0 1.380059,0.53821 2.843675,1.19601 7.137255,3.20774 13.245805,4.39051 21.948445,4.24977 5.08462,-0.0822 5.68882,-0.14695 9.6573,-1.03444 z"
         id="path498" />
      <path
         style="fill:#e6e6e6;stroke-width:0.264583"
         d="m 15.707459,274.04177 c -0.259204,-0.2944 -0.330729,-5.38482 -0.330729,-23.53785 0,-22.98582 -0.004,-23.16221 -0.529166,-23.16221 -0.49389,0 -0.529167,-0.17639 -0.529167,-2.64583 v -2.64583 h 1.984375 c 2.244913,0 2.165416,-0.10939 1.718985,2.36532 -1.052598,5.83487 -1.057527,5.965 -1.057527,27.91499 0,18.15162 -0.05664,21.40788 -0.377976,21.72921 -0.45517,0.45517 -0.46251,0.45502 -0.878795,-0.0178 z M 212.62114,252.67569 c -0.001,-11.96916 -0.10822,-22.56957 -0.23748,-23.55647 -0.20356,-1.55413 -0.17498,-1.83826 0.21347,-2.12231 0.3972,-0.29044 0.43949,-0.85062 0.36977,-4.89853 l -0.0787,-4.57059 0.79159,0.0783 c 0.53893,0.0533 0.82287,0.24324 0.88964,0.59505 0.0539,0.2842 0.0125,2.45709 -0.0922,4.82864 -0.1759,3.98777 -0.22786,4.31192 -0.6912,4.31192 -0.32461,0 -0.501,0.18631 -0.501,0.52917 0,0.35278 0.17639,0.52917 0.52917,0.52917 0.44679,0 0.52853,0.17503 0.52511,1.12448 -0.003,0.75441 -0.081,1.00294 -0.23788,0.75519 -0.12861,-0.2031 -0.42444,-0.29614 -0.65741,-0.20674 -0.58101,0.22296 -0.60365,2.69927 -0.0267,2.92066 0.34806,0.13357 0.39638,2.65109 0.39282,20.46737 -0.004,19.55507 -0.0855,21.79057 -0.75767,20.74816 -0.15347,-0.23803 -0.26594,-0.26048 -0.33073,-0.066 -0.054,0.16205 -0.0993,-9.4983 -0.10063,-21.46746 z m -1.43186,-31.04457 c 0.0127,-0.30822 0.0754,-0.37092 0.15985,-0.15985 0.0764,0.191 0.067,0.4192 -0.0209,0.50712 -0.0879,0.0879 -0.15046,-0.0683 -0.13897,-0.34727 z m -0.76613,-2.01965 c -0.1722,-0.1722 -0.31309,-0.57918 -0.31309,-0.90441 0,-0.32522 -0.12736,-0.92629 -0.28302,-1.33571 -0.28123,-0.73968 -0.27979,-0.74104 0.22641,-0.21566 0.28018,0.2908 0.45125,0.68559 0.38015,0.87731 -0.0711,0.19172 0.0256,0.63802 0.21496,0.99179 0.38576,0.7208 0.25335,1.06544 -0.22541,0.58668 z M 18.88773,219.20578 c 0.07322,-0.25467 0.22684,-0.69205 0.341376,-0.97198 0.166756,-0.40756 0.120028,-0.4751 -0.234567,-0.33903 -0.339378,0.13023 -0.442809,0.0193 -0.442809,-0.47493 0,-0.45233 0.113662,-0.60124 0.380706,-0.49876 0.521206,0.2 0.777148,1.53821 0.421349,2.20303 -0.355965,0.66513 -0.648562,0.7164 -0.466055,0.0817 z m 189.37025,-5.22553 c 0,-0.7193 0.24747,-0.83731 0.73453,-0.35025 0.22726,0.22726 0.2328,0.40569 0.0205,0.66146 -0.44979,0.54199 -0.75504,0.41617 -0.75504,-0.31121 z M 20.98845,213.53302 c -0.410334,-0.41034 -0.411692,-1.33967 -0.0026,-1.74881 0.246944,-0.24694 0.246944,-0.38805 0,-0.635 -0.174625,-0.17462 -0.3175,-0.64041 -0.3175,-1.03507 0,-0.63099 0.127715,-0.73916 1.058333,-0.89638 0.985182,-0.16645 1.058334,-0.23925 1.058334,-1.05329 0,-0.89729 0.339989,-1.19567 1.362387,-1.19567 0.421391,0 0.489979,0.11781 0.346594,0.59531 -0.09832,0.32742 -0.314704,0.8472 -0.480852,1.15507 -0.166147,0.30787 -0.631515,1.17107 -1.03415,1.91823 -0.402632,0.74716 -0.861856,1.35847 -1.020493,1.35847 -0.158638,0 -0.229023,0.15483 -0.156405,0.34406 0.07261,0.18923 -0.0088,0.6071 -0.180806,0.92859 -0.244703,0.45724 -0.38254,0.51484 -0.632889,0.26449 z m 188.74437,-0.39076 c -0.0931,-0.24261 -0.0463,-0.56408 0.10398,-0.71437 0.18795,-0.18796 0.27326,-0.0502 0.27326,0.44111 0,0.8162 -0.13216,0.91194 -0.37724,0.27326 z m -3.13081,-2.74768 c -0.38227,-0.64726 -1.0015,-1.74237 -1.37607,-2.4336 l -0.68105,-1.25677 h 0.67593 c 0.57369,0 0.66441,0.10587 0.59977,0.69986 -0.0419,0.38491 0.0633,0.7489 0.23375,0.80885 0.19806,0.0697 0.25854,-0.0874 0.16758,-0.43527 -0.18897,-0.72263 0.26521,-0.68891 1.09638,0.0814 0.87457,0.81052 0.8974,1.46013 0.0456,1.2973 -0.56665,-0.10832 -0.61555,-0.0452 -0.48974,0.632 0.0769,0.41379 0.25559,0.82787 0.39716,0.92018 0.14157,0.0923 0.20527,0.32422 0.14156,0.51536 -0.0658,0.1973 -0.4163,-0.16121 -0.81087,-0.82929 z m -1.51903,-4.21953 c 0,-0.14552 0.11906,-0.26459 0.26458,-0.26459 0.14552,0 0.26458,0.11907 0.26458,0.26459 0,0.14552 -0.11906,0.26458 -0.26458,0.26458 -0.14552,0 -0.26458,-0.11906 -0.26458,-0.26458 z M 24.90173,204.98442 c 0,-0.89307 0.101314,-1.19062 0.4054,-1.19062 0.635002,0 0.911309,1.08642 0.453869,1.78456 -0.593204,0.90534 -0.859269,0.72144 -0.859269,-0.59394 z m 1.431195,-1.29008 c -0.224158,-0.58415 0.07406,-0.88237 0.478216,-0.47822 0.238627,0.23863 0.239643,0.38654 0.0043,0.62192 -0.235378,0.23538 -0.350123,0.2012 -0.482478,-0.1437 z M 202.50079,203.5328 c -0.18053,-0.28906 -0.32823,-0.64625 -0.32823,-0.79375 0,-0.44295 0.45542,-0.30227 0.63077,0.19485 0.0898,0.25466 0.2327,0.61185 0.31749,0.79375 0.25088,0.5382 -0.26311,0.37668 -0.62003,-0.19485 z m 1.25927,-1.60999 c 0,-0.30143 0.17009,-0.71815 0.37797,-0.92604 0.20789,-0.20788 0.62461,-0.37797 0.92605,-0.37797 0.44997,0 0.54806,0.16574 0.54806,0.92604 0,0.88194 -0.0441,0.92604 -0.92604,0.92604 -0.7603,0 -0.92604,-0.0981 -0.92604,-0.54807 z m -2.64583,-0.64255 c 0,-0.21829 0.17485,-0.39688 0.38857,-0.39688 0.23669,0 0.32904,0.15512 0.23627,0.39688 -0.0838,0.21828 -0.25862,0.39687 -0.38857,0.39687 -0.12995,0 -0.23627,-0.17859 -0.23627,-0.39687 z m -174.095833,-0.1323 c 0,-0.14552 0.178593,-0.26458 0.396875,-0.26458 0.218281,0 0.396875,0.11906 0.396875,0.26458 0,0.14552 -0.178594,0.26459 -0.396875,0.26459 -0.218282,0 -0.396875,-0.11907 -0.396875,-0.26459 z m 1.234723,-0.17639 c -0.09701,-0.097 -0.17639,-0.39466 -0.17639,-0.66145 0,-0.30868 -0.192424,-0.48507 -0.529167,-0.48507 -0.470371,0 -0.529166,-0.17639 -0.529166,-1.5875 v -1.5875 h 1.019958 1.019961 l 0.159654,1.90438 c 0.175229,2.09012 -0.243324,3.13867 -0.96485,2.41714 z m 171.7925,-0.68933 c -0.28539,-0.30634 -0.51625,-0.74288 -0.51301,-0.9701 0.004,-0.29117 0.15615,-0.21785 0.51488,0.24832 0.40744,0.52949 0.5752,0.59547 0.84078,0.33073 0.47319,-0.47168 0.75512,-0.40911 0.75512,0.16758 0,0.7485 -0.98082,0.88568 -1.59777,0.22347 z m -2.96629,-3.65424 c -0.57651,-0.63142 -0.59268,-1.03629 -0.0414,-1.03629 0.23191,0 0.48392,0.23813 0.56003,0.52917 0.0761,0.29104 0.24356,0.52917 0.3721,0.52917 0.12855,0 0.23373,0.11906 0.23373,0.26458 0,0.42308 -0.62101,0.26479 -1.12448,-0.28663 z m -3.37344,-3.9467 c 0,-0.14552 0.11906,-0.26459 0.26459,-0.26459 0.14552,0 0.26458,0.11907 0.26458,0.26459 0,0.14552 -0.11906,0.26458 -0.26458,0.26458 -0.14553,0 -0.26459,-0.11906 -0.26459,-0.26458 z m -0.62485,-0.66146 c 0.0838,-0.21828 0.19909,-0.39688 0.25629,-0.39688 0.0572,0 0.10398,0.1786 0.10398,0.39688 0,0.21828 -0.11533,0.39687 -0.25628,0.39687 -0.14095,0 -0.18775,-0.17859 -0.10399,-0.39687 z M 37.337146,191.0938 c 0,-0.14552 0.119063,-0.26459 0.264584,-0.26459 0.14552,0 0.264583,0.11907 0.264583,0.26459 0,0.14552 -0.119063,0.26458 -0.264583,0.26458 -0.145521,0 -0.264584,-0.11906 -0.264584,-0.26458 z m 152.323604,-1.5713 c -0.8417,-0.78723 -1.03985,-1.11723 -0.81014,-1.3492 0.36894,-0.37254 1.4157,-0.0888 1.4157,0.38378 0,0.18592 0.23812,0.55354 0.52917,0.81693 0.56425,0.51064 0.70951,1.19062 0.25433,1.19062 -0.15115,0 -0.77623,-0.46896 -1.38906,-1.04213 z M 39.98298,188.82922 c 0,-0.22687 0.121004,-0.3377 0.268898,-0.2463 0.147894,0.0914 0.200401,0.27703 0.116676,0.41249 -0.226809,0.36699 -0.385574,0.29856 -0.385574,-0.16619 z m 1.450191,-2.50604 c -0.09857,-0.15949 -0.551002,-0.20095 -1.089771,-0.0999 l -0.921229,0.17283 0.08197,-1.28919 0.08197,-1.28918 1.284655,-0.0818 1.284658,-0.0818 -0.09594,1.20626 c -0.05277,0.66345 -0.0058,1.20626 0.104404,1.20626 0.110191,0 0.200346,0.11907 0.200346,0.26459 0,0.34781 -0.714936,0.34157 -0.931059,-0.008 z m 143.185609,-0.74032 c -0.58037,-0.6413 -0.55218,-0.83906 0.11959,-0.83906 0.38683,0 0.51085,-0.12149 0.40517,-0.39688 -0.0838,-0.21828 -0.051,-0.39687 0.0728,-0.39687 0.1238,0 0.23166,0.47625 0.2397,1.05833 0.0161,1.16772 -0.17915,1.30169 -0.83726,0.57448 z M 46.068396,183.42088 c 0,-0.14552 0.119063,-0.26458 0.264583,-0.26458 0.145521,0 0.264584,0.11906 0.264584,0.26458 0,0.14552 -0.119063,0.26458 -0.264584,0.26458 -0.14552,0 -0.264583,-0.11906 -0.264583,-0.26458 z m 135.003644,-0.31086 c -0.90375,-0.55871 -1.11963,-1.01206 -0.48192,-1.01206 0.62078,0 1.20952,-0.77947 1.20952,-1.60135 0,-0.86829 0.59694,-1.14582 2.1462,-0.99783 0.80531,0.0769 0.90522,0.17684 0.98215,0.98215 0.1493,1.56289 -0.12774,2.1462 -1.01931,2.1462 -0.46388,0 -0.97877,0.21896 -1.24439,0.52917 -0.5371,0.62729 -0.50103,0.62834 -1.59225,-0.0463 z m -133.904432,-0.3341 c 0.05028,-0.24273 0.210476,-0.43503 0.355996,-0.42735 0.392719,0.0207 0.32057,0.61268 -0.09141,0.75 -0.222546,0.0742 -0.321731,-0.0468 -0.264583,-0.32265 z m -0.884238,-0.8587 c 0.190995,-0.0764 0.419198,-0.067 0.507119,0.0209 0.08792,0.0879 -0.06835,0.15045 -0.347266,0.13896 -0.308226,-0.0127 -0.370919,-0.0754 -0.159853,-0.15985 z m 3.753776,-0.20101 c 0,-0.50603 1.208249,-1.97976 1.730605,-2.11086 0.618953,-0.15535 0.650645,-0.26018 0.650645,-2.15222 v -1.98891 l 2.579687,0.0757 2.579688,0.0757 -0.05876,0.79295 -0.05876,0.79295 0.935318,-0.99138 c 0.801336,-0.84938 1.099736,-0.99139 2.083121,-0.99139 1.015372,0 1.287592,-0.14179 2.359358,-1.22892 0.666356,-0.6759 1.362035,-1.56887 1.545955,-1.98437 0.462746,-1.04542 0.917403,-0.9444 1.065424,0.23673 0.170479,1.36031 -0.100221,1.7587 -1.575324,2.31837 -0.69809,0.26487 -1.68597,0.75481 -2.195293,1.08876 -0.509323,0.33395 -1.402291,0.77758 -1.984375,0.98585 -0.582083,0.20826 -1.765704,0.80821 -2.630267,1.3332 -0.864566,0.525 -1.726737,0.95454 -1.915941,0.95454 -0.189201,0 -0.898755,0.42345 -1.576784,0.94101 -1.589519,1.2133 -3.534299,2.23252 -3.534299,1.85224 z m 127.729494,-0.77348 c -0.83571,-0.45603 -1.75662,-1.03478 -2.04647,-1.28611 -0.28986,-0.25132 -0.83167,-0.53342 -1.20404,-0.62688 -0.84589,-0.21231 -0.70988,-0.75922 0.19759,-0.79452 0.37164,-0.0145 0.87131,-0.10134 1.11038,-0.19308 0.32731,-0.12561 0.47361,0.0279 0.59234,0.6216 0.12256,0.61278 0.29955,0.78839 0.79457,0.78839 0.35028,0 1.07954,0.18992 1.62057,0.42204 0.95611,0.41021 0.96623,0.42879 0.36103,0.66305 l -0.62266,0.24101 0.62266,0.51877 c 0.8925,0.74359 0.32971,0.60378 -1.42597,-0.35427 z m -7.55361,-4.17389 c -0.47904,-0.30675 -0.80934,-0.61937 -0.734,-0.69471 0.0754,-0.0753 0.2887,-0.0124 0.47411,0.13995 0.18542,0.15231 0.62546,0.3181 0.97786,0.36843 0.35241,0.0503 0.68975,0.24032 0.74966,0.42223 0.16335,0.49601 -0.48812,0.3913 -1.46763,-0.2359 z m -1.51026,-1.02088 c -0.0899,-0.14552 -0.0374,-0.26458 0.11667,-0.26458 0.15411,0 0.2802,0.11906 0.2802,0.26458 0,0.14553 -0.0525,0.26459 -0.11667,0.26459 -0.0642,0 -0.19026,-0.11906 -0.2802,-0.26459 z m -2.91042,-1.06501 c -0.87312,-0.43933 -1.34937,-0.72244 -1.05833,-0.62912 0.29104,0.0933 0.67799,0.15548 0.85989,0.13815 0.40979,-0.0391 0.92868,-0.0258 1.78594,0.0457 0.49324,0.0411 0.66146,0.20652 0.66146,0.65043 0,0.78292 -0.3485,0.75113 -2.24896,-0.20512 z m -3.70417,-1.53645 c -0.43656,-0.26555 -1.18309,-0.56026 -1.65896,-0.65492 -0.47587,-0.0947 -1.4879,-0.45859 -2.24896,-0.80873 -0.76106,-0.35015 -1.6814,-0.77165 -2.0452,-0.93666 -0.64156,-0.291 -0.63758,-0.29519 0.13229,-0.13925 0.43656,0.0884 1.31518,0.22299 1.95248,0.29902 0.73769,0.088 1.03327,0.21577 0.81347,0.35162 -0.1899,0.11736 0.62813,0.14666 1.81783,0.0651 1.20176,-0.0824 2.1659,-0.0433 2.16941,0.088 0.003,0.12993 0.10999,0.68273 0.23672,1.22843 0.26675,1.14869 0.0441,1.24533 -1.16908,0.50739 z m -93.254381,-1.35881 -0.607332,-0.45811 0.860287,-0.17206 c 1.932874,-0.38657 3.483128,-0.0396 2.183204,0.48865 -1.384932,0.56279 -1.842437,0.58937 -2.436159,0.14152 z m 1.377826,-0.44829 c -0.181901,-0.0734 -0.479558,-0.0734 -0.661459,0 -0.181901,0.0734 -0.03307,0.13346 0.330729,0.13346 0.363803,0 0.512631,-0.0601 0.33073,-0.13346 z m 1.719791,-0.63971 c -0.254661,-0.14833 -0.463021,-0.56827 -0.463021,-0.93321 0,-0.61475 0.08068,-0.65754 1.097534,-0.58217 1.366309,0.10129 1.963748,0.82813 1.167001,1.41978 -0.597982,0.44404 -1.152729,0.47348 -1.801514,0.0956 z m 1.593012,-0.98753 c 0.121991,-0.36598 -0.893848,-0.4317 -1.116024,-0.0722 -0.158051,0.25573 0.343681,0.54959 0.763247,0.44703 0.136424,-0.0334 0.295177,-0.20202 0.352777,-0.37482 z m 80.758552,0.53247 c 0,-0.11642 0.14287,-0.35454 0.3175,-0.52917 0.46645,-0.46645 0.74083,-0.38806 0.74083,0.21167 0,0.35278 -0.17639,0.52917 -0.52917,0.52917 -0.29104,0 -0.52916,-0.0952 -0.52916,-0.21167 z m -5.47728,-1.48277 c -1.15692,-0.42118 -1.36283,-0.68681 -0.53239,-0.68681 0.79839,0 2.04092,0.50909 2.04092,0.83622 0,0.28289 -0.44109,0.23921 -1.50853,-0.14941 z m -67.547721,-0.42223 c 0,-0.14552 0.126089,-0.26458 0.280199,-0.26458 0.154109,0 0.206613,0.11906 0.116676,0.26458 -0.08994,0.14552 -0.216027,0.26458 -0.2802,0.26458 -0.06417,0 -0.116675,-0.11906 -0.116675,-0.26458 z m -7.672917,-0.65076 c 0,-0.66753 0.01561,-0.67216 2.26736,-0.67216 2.2,0 2.264849,0.0177 2.182813,0.59532 -0.07882,0.55502 -0.232289,0.60051 -2.26736,0.67215 -2.181376,0.0768 -2.182813,0.0764 -2.182813,-0.59531 z m 76.547768,0.18774 c -0.0906,-0.25466 -0.21298,-0.55232 -0.27189,-0.66146 -0.0589,-0.10914 1.09054,-0.19844 2.55434,-0.19844 h 2.66145 v 0.66146 c 0,0.65673 -0.0171,0.66146 -2.38956,0.66146 -2.0366,0 -2.41389,-0.0684 -2.55434,-0.46302 z m -4.05194,-0.44362 c 0,-0.24544 0.22622,-0.41628 0.55122,-0.41628 0.6448,0 0.55366,0.61827 -0.11012,0.74701 -0.26108,0.0506 -0.4411,-0.0843 -0.4411,-0.33073 z m -2.51166,-0.14866 c -0.0927,-0.14998 0.0135,-0.19434 0.24896,-0.10399 0.45837,0.1759 0.54224,0.36554 0.16165,0.36554 -0.13693,0 -0.32171,-0.1177 -0.41061,-0.26155 z M 87.7048,166.37226 c 0.259905,-0.39667 0.407712,-0.89019 0.328462,-1.09671 -0.104884,-0.27333 0.07388,-0.3755 0.656968,-0.3755 0.506188,0 0.736058,0.10517 0.624472,0.28573 -0.09713,0.15715 0.08448,0.46858 0.403556,0.69208 0.748837,0.5245 0.449905,0.7851 -1.173668,1.02317 l -1.312344,0.19243 z m 52.68755,0.12515 -1.32291,-0.17158 0.99218,-0.45186 c 0.54571,-0.24852 0.99219,-0.56932 0.99219,-0.71289 0,-0.14357 0.29766,-0.26103 0.66146,-0.26103 0.57956,0 0.66146,0.11465 0.66146,0.92604 0,0.58661 -0.12123,0.91081 -0.33073,0.88448 -0.1819,-0.0229 -0.92604,-0.11878 -1.65365,-0.21316 z m -49.344788,-0.27098 c 0,-0.22831 2.403078,-0.599 2.600872,-0.40121 0.228494,0.2285 -0.04591,0.32289 -1.344102,0.46233 -0.691224,0.0742 -1.25677,0.0467 -1.25677,-0.0611 z m 46.831248,-0.65988 c 0,-0.40061 1.05094,-0.80126 1.61158,-0.61438 0.45943,0.15314 -0.47427,1.00621 -1.10131,1.00621 -0.28065,0 -0.51027,-0.17633 -0.51027,-0.39183 z M 99.712666,164.9894 c 0.181901,-0.0734 0.479554,-0.0734 0.661454,0 0.1819,0.0734 0.0331,0.13346 -0.33073,0.13346 -0.363797,0 -0.512625,-0.0601 -0.330724,-0.13346 z m 26.524474,-0.35394 c 0,-0.14552 0.17157,-0.26458 0.38126,-0.26458 0.2097,0 0.45485,0.11906 0.54479,0.26458 0.0899,0.14553 -0.0816,0.26459 -0.38126,0.26459 -0.29963,0 -0.54479,-0.11906 -0.54479,-0.26459 z m -12.77204,-0.45554 c 0.46969,-0.0585 1.30313,-0.0594 1.85208,-0.002 0.54895,0.0573 0.16465,0.10509 -0.85399,0.10627 -1.01865,0.001 -1.46779,-0.0457 -0.99809,-0.10414 z m -22.946705,-0.73508 v -0.66146 h 4.497917 c 2.555128,0 4.497916,0.10493 4.497916,0.24294 0,1.0335 -0.200485,1.07998 -4.658516,1.07998 h -4.337317 z m 43.023095,0.24294 c -0.31734,-0.82698 -0.12726,-0.9044 2.22065,-0.9044 2.36361,0 2.38125,0.005 2.38125,0.66146 0,0.65301 -0.0283,0.66146 -2.22065,0.66146 -1.78086,0 -2.25245,-0.0829 -2.38125,-0.41852 z m -26.02362,-0.8222 c 0.25467,-0.0666 0.67138,-0.0666 0.92605,0 0.25466,0.0666 0.0463,0.121 -0.46303,0.121 -0.50932,0 -0.71768,-0.0545 -0.46302,-0.121 z m 10.84792,0 c 0.25466,-0.0666 0.67138,-0.0666 0.92604,0 0.25466,0.0666 0.0463,0.121 -0.46302,0.121 -0.50932,0 -0.71768,-0.0545 -0.46302,-0.121 z m -10.3849,-7.73347 c 0,-1.06449 0.091,-1.07998 6.35,-1.07998 6.25896,0 6.35,0.0155 6.35,1.07998 0,0.14078 -2.67013,0.24294 -6.35,0.24294 -3.67987,0 -6.35,-0.10216 -6.35,-0.24294 z m -4.80342,-2.2236 c -0.40087,-0.30495 -0.38761,-0.38134 0.15723,-0.90574 0.55976,-0.53875 0.69993,-0.55531 2.36457,-0.27947 1.94712,0.32265 2.22899,0.82115 0.54138,0.95745 -0.57083,0.0461 -1.15099,0.19493 -1.28923,0.33073 -0.35162,0.34538 -1.25338,0.29304 -1.77395,-0.10297 z m 23.39544,0.16652 c 0.25743,-0.0671 0.61462,-0.0627 0.79375,0.01 0.17913,0.0725 -0.0315,0.12737 -0.46806,0.12197 -0.43656,-0.005 -0.58312,-0.0647 -0.32569,-0.13177 z m -3.77535,-0.81685 c 0,-0.24499 1.28192,-0.61794 2.51354,-0.73127 1.35881,-0.12503 8.29741,-2.18138 8.9846,-2.66271 0.80308,-0.56249 0.93728,-0.45964 0.93728,0.71832 0,0.89967 -0.0749,1.05791 -0.43514,0.91967 -0.23933,-0.0918 -0.62628,-0.001 -0.8599,0.20105 -0.27498,0.23826 -1.43273,0.42652 -3.28335,0.5339 -1.57223,0.0912 -3.08675,0.28798 -3.36561,0.43722 -0.27885,0.14923 -1.07816,0.31935 -1.77625,0.37803 -0.69808,0.0587 -1.59457,0.18836 -1.99221,0.28815 -0.42551,0.1068 -0.72296,0.0729 -0.72296,-0.0824 z m -21.69583,-0.5873 c 0,-0.14552 -0.44649,-0.2664 -0.99219,-0.26863 -1.139184,-0.005 -1.803762,-0.33276 -1.539636,-0.76012 0.262419,-0.4246 0.679741,-0.36154 0.679741,0.10271 0,0.21828 0.185621,0.39687 0.41249,0.39687 0.22687,0 0.338905,-0.11906 0.248968,-0.26458 -0.345294,-0.5587 0.763457,-0.2318 1.346087,0.39688 0.43862,0.47327 0.50371,0.66145 0.22878,0.66145 -0.21133,0 -0.38424,-0.11906 -0.38424,-0.26458 z m -5.027085,-0.92604 c 0,-0.21828 0.119062,-0.39688 0.264583,-0.39688 0.145521,0 0.264583,0.1786 0.264583,0.39688 0,0.21828 -0.119062,0.39687 -0.264583,0.39687 -0.145521,0 -0.264583,-0.17859 -0.264583,-0.39687 z m -0.396875,-1.19063 c -0.08994,-0.14552 0.01508,-0.26458 0.233354,-0.26458 0.218282,0 0.470459,0.11906 0.560396,0.26458 0.08994,0.14553 -0.01508,0.26459 -0.233355,0.26459 -0.218281,0 -0.470458,-0.11906 -0.560395,-0.26459 z m 43.25937,-0.79375 c 0,-0.14552 -0.23109,-0.26458 -0.51355,-0.26458 -0.61827,0 -0.96843,-0.47593 -0.61222,-0.83214 0.1661,-0.1661 0.64411,-0.055 1.35278,0.31435 1.24196,0.64734 1.40779,1.04696 0.43445,1.04696 -0.3638,0 -0.66146,-0.11906 -0.66146,-0.26459 z m -3.0427,-0.52916 c 0.0899,-0.14552 0.21602,-0.26459 0.28019,-0.26459 0.0642,0 0.11668,0.11907 0.11668,0.26459 0,0.14552 -0.12609,0.26458 -0.2802,0.26458 -0.15411,0 -0.20661,-0.11906 -0.11667,-0.26458 z m -44.694735,-0.54489 c -0.502695,-0.50677 -0.502695,-0.51334 0,-0.50503 0.608023,0.0101 1.499179,0.63332 1.254855,0.87764 -0.291788,0.29179 -0.722725,0.16383 -1.254855,-0.37261 z m -2.648122,-0.75098 c -0.327075,-0.12809 -0.405244,-0.26608 -0.21672,-0.3826 0.162187,-0.10024 0.373242,-0.0555 0.469013,0.0995 0.123138,0.19924 0.27363,0.19917 0.513914,-2.5e-4 0.385093,-0.3196 1.275543,-0.079 1.051179,0.28402 -0.173601,0.2809 -1.099243,0.28055 -1.817386,-7.9e-4 z m 0.24702,-0.8208 c -0.08994,-0.14552 -0.03743,-0.26458 0.116676,-0.26458 0.154109,0 0.280199,0.11906 0.280199,0.26458 0,0.14552 -0.0525,0.26458 -0.116676,0.26458 -0.06417,0 -0.190261,-0.11906 -0.280199,-0.26458 z m -5.159375,-2.14206 c 0,-0.68322 -0.09109,-0.76835 -0.822057,-0.76835 -0.640906,0 -0.786667,-0.0922 -0.661459,-0.41852 0.08833,-0.23018 0.1606,-0.58482 0.1606,-0.78808 0,-0.29818 0.127764,-0.31135 0.661458,-0.0682 0.363802,0.16576 0.661458,0.5204 0.661458,0.78808 0,0.33006 0.193916,0.4867 0.602541,0.4867 0.335664,0 0.905031,0.34472 1.285494,0.7783 l 0.682956,0.77832 -1.285497,-0.01 c -1.24021,-0.01 -1.285494,-0.037 -1.285494,-0.77832 z m 59.266662,0.45058 c 0,-0.0572 0.1786,-0.17252 0.39688,-0.25628 0.21828,-0.0838 0.39687,-0.037 0.39687,0.10398 0,0.14096 -0.17859,0.25628 -0.39687,0.25628 -0.21828,0 -0.39688,-0.0468 -0.39688,-0.10398 z m 2.11667,-0.42518 c 0,-0.14553 0.17859,-0.26459 0.39688,-0.26459 0.21828,0 0.39687,0.11906 0.39687,0.26459 0,0.14552 -0.17859,0.26458 -0.39687,0.26458 -0.21829,0 -0.39688,-0.11906 -0.39688,-0.26458 z m 1.46733,-1.51904 c -0.11904,-0.3102 0.023,-0.61394 0.43471,-0.92974 0.33633,-0.25797 0.84408,-0.64596 1.12834,-0.86221 1.01258,-0.77032 1.2066,-0.37695 0.52379,1.06196 -0.35009,0.73778 -0.98515,1.17105 -1.73992,1.18708 -0.0936,0.002 -0.24969,-0.20371 -0.34692,-0.45709 z m 3.82434,-3.10187 c 0,-0.39028 0.22158,-0.77073 0.55182,-0.94747 0.75854,-0.40596 0.97317,-0.094 0.32576,0.47347 -0.2916,0.25558 -0.47936,0.61352 -0.41725,0.79543 0.0621,0.1819 -0.0161,0.33073 -0.1737,0.33073 -0.15765,0 -0.28663,-0.29347 -0.28663,-0.65216 z m -72.495835,-0.40618 c 0,-0.14552 0.12609,-0.26458 0.280199,-0.26458 0.15411,0 0.206613,0.11906 0.116676,0.26458 -0.08994,0.14552 -0.216027,0.26459 -0.280199,0.26459 -0.06417,0 -0.116676,-0.11907 -0.116676,-0.26459 z m 74.132945,-1.60403 c 0.0637,-0.191 0.27202,-0.39936 0.46302,-0.46303 0.19843,-0.0661 0.29765,0.0331 0.23151,0.23151 -0.0637,0.191 -0.27203,0.39936 -0.46302,0.46303 -0.19844,0.0661 -0.29766,-0.0331 -0.23151,-0.23151 z m 2.59622,-2.11903 c 0,-0.15592 0.17859,-0.46208 0.39687,-0.68036 0.41209,-0.41208 0.51369,-0.17759 0.23628,0.54532 -0.18118,0.47215 -0.63315,0.56855 -0.63315,0.13504 z m -82.483852,-0.95016 c -0.419486,-0.0888 -0.595313,-0.31601 -0.595313,-0.76914 0,-0.35368 0.133641,-0.64305 0.296979,-0.64305 0.208894,0 0.201952,-0.11451 -0.02339,-0.38604 -0.328636,-0.39597 -0.145399,-1.99521 0.228595,-1.99521 0.259106,0 2.741758,3.45883 2.590919,3.60967 -0.195382,0.19538 -1.863479,0.3181 -2.497791,0.18377 z m 83.806772,-0.35386 c 0,-0.14552 0.11906,-0.26458 0.26458,-0.26458 0.14552,0 0.26458,0.11906 0.26458,0.26458 0,0.14552 -0.11906,0.26458 -0.26458,0.26458 -0.14552,0 -0.26458,-0.11906 -0.26458,-0.26458 z m 2.38125,-4.19832 c 0,-0.48524 0.43742,-1.01311 0.6539,-0.78911 0.33337,0.34493 0.20893,1.14477 -0.19088,1.22692 -0.31922,0.0656 -0.46302,-0.0704 -0.46302,-0.43781 z m 2.75279,-0.86226 c 0.12592,-0.78747 0.0577,-1.27024 -0.24477,-1.73185 -0.49781,-0.75975 -0.30946,-1.55785 0.46551,-1.9726 0.45428,-0.24312 0.62102,-0.20949 0.90812,0.18314 0.19343,0.26452 0.35168,0.69631 0.35168,0.95954 0,0.29436 0.19415,0.4786 0.50434,0.4786 0.40393,0 0.54023,0.26094 0.68461,1.31072 0.0991,0.7209 0.10329,1.43528 0.009,1.5875 -0.0941,0.15223 -0.77455,0.27678 -1.51217,0.27678 h -1.34111 z m -93.769458,-1.554 c 0,-0.29602 0.17639,-0.52917 0.400336,-0.52917 0.321569,0 0.374425,-0.26028 0.268647,-1.32292 -0.140784,-1.41432 0.25376,-1.83575 0.55734,-0.59531 0.09794,0.40018 0.295187,0.80429 0.438332,0.89802 0.151604,0.0993 0.02413,0.42386 -0.305324,0.77749 -0.311068,0.3339 -0.565581,0.76323 -0.565581,0.95407 0,0.19084 -0.178594,0.34698 -0.396875,0.34698 -0.220485,0 -0.396875,-0.23518 -0.396875,-0.52916 z m 1.322917,0.16059 c 0,-0.46614 0.800304,-0.78904 1.13244,-0.4569 0.13761,0.13761 0.170207,0.37963 0.07243,0.53784 -0.257712,0.41698 -1.204873,0.35336 -1.204873,-0.0809 z m 91.167481,0.13397 c -0.0797,-0.12903 0.0217,-0.37294 0.22542,-0.54202 0.41241,-0.34227 0.83472,0.051 0.5498,0.51204 -0.20245,0.32758 -0.58221,0.34227 -0.77522,0.03 z m 3.57424,-2.30099 c 0.0127,-0.30822 0.0754,-0.37092 0.15985,-0.15985 0.0764,0.19099 0.067,0.4192 -0.0209,0.50712 -0.0879,0.0879 -0.15045,-0.0684 -0.13896,-0.34727 z m -1.34381,-1.42608 c 0,-0.83167 1.0161,-3.18208 1.37564,-3.18208 0.11653,0 0.21186,0.1318 0.21186,0.29289 0,0.16109 0.17478,0.22583 0.3884,0.14385 0.21363,-0.082 0.45878,-0.0352 0.54479,0.10398 0.086,0.13917 -0.0238,0.25303 -0.24412,0.25303 -0.24824,0 -0.46655,0.35207 -0.57423,0.92604 -0.0956,0.50933 -0.26663,0.92605 -0.38018,0.92605 -0.11355,0 -0.28116,0.29765 -0.37247,0.66145 -0.23866,0.95087 -0.94969,0.85712 -0.94969,-0.12521 z m -95.977599,-0.46986 c -0.642514,-0.31904 -0.859895,-0.60212 -0.859895,-1.1198 0,-1.55686 1.408863,-1.81999 2.012275,-0.37583 0.704297,1.68562 0.29641,2.21501 -1.15238,1.49563 z m 98.888019,-3.22577 c 0,-0.13693 0.12272,-0.32481 0.2727,-0.41751 0.15626,-0.0966 0.20193,-0.54582 0.10694,-1.05213 -0.0912,-0.48598 -0.0389,-1.10178 0.11613,-1.36843 0.21992,-0.37826 0.28366,-0.0922 0.28993,1.3011 0.006,1.41469 -0.0744,1.78594 -0.38883,1.78594 -0.21828,0 -0.39687,-0.11204 -0.39687,-0.24897 z m -1.32292,-0.54478 c 0,-0.14552 0.11907,-0.26458 0.26459,-0.26458 0.14552,0 0.26458,0.11906 0.26458,0.26458 0,0.14552 -0.11906,0.26458 -0.26458,0.26458 -0.14552,0 -0.26459,-0.11906 -0.26459,-0.26458 z m -99.33506,-2.45977 c 0.07241,-0.1887 -0.05248,-1.21848 -0.277543,-2.2884 -0.459753,-2.18558 -0.396592,-2.71265 0.120769,-1.00783 0.187904,0.61918 0.504814,1.50097 0.704241,1.95953 0.505966,1.16338 0.457309,1.6798 -0.158265,1.6798 -0.318006,0 -0.469586,-0.13362 -0.389202,-0.3431 z m 102.36077,-4.44691 c -0.0993,-0.16065 0.13181,-0.60443 0.51355,-0.98618 0.38174,-0.38174 0.69408,-0.54795 0.69408,-0.36936 0,0.1786 -0.13197,0.32472 -0.29327,0.32472 -0.1807,0 -0.22954,0.25389 -0.12725,0.66146 0.1203,0.47933 0.0597,0.66146 -0.22029,0.66146 -0.21246,0 -0.46753,-0.13145 -0.56682,-0.2921 z m -105.684038,-2.2605 c 0,-1.26396 0.07519,-2.22291 0.167079,-2.13102 0.0919,0.0919 0.389552,0.048 0.661459,-0.0975 0.34472,-0.18449 0.494379,-0.55812 0.494379,-1.23423 0,-0.71477 0.07777,-0.89189 0.29586,-0.67379 0.324135,0.32413 0.344963,5.6401 0.0232,5.9258 -0.10273,0.0912 -0.514205,0.24302 -0.914387,0.33734 l -0.727604,0.17149 v -2.29809 z m 106.428648,-1.65671 c -0.18191,-0.59071 -0.3129,-1.58192 -0.29109,-2.20267 0.0318,-0.90385 0.0628,-0.97073 0.15616,-0.33576 0.0641,0.43609 0.23211,0.86433 0.37339,0.95164 0.14127,0.0873 0.21983,0.72172 0.17456,1.40979 l -0.0823,1.25103 z M 60.885062,106.83962 c 0,-0.37239 0.119063,-0.67707 0.264584,-0.67707 0.145521,0 0.264583,0.2311 0.264583,0.51355 0,0.28245 -0.119062,0.58714 -0.264583,0.67707 -0.150061,0.0927 -0.264584,-0.12954 -0.264584,-0.51355 z m 1.177309,-1.82655 c -0.15303,-0.60972 -0.200552,-0.61816 -2.783165,-0.49379 l -2.627477,0.12652 V 99.847924 95.05005 h 2.116667 c 2.058402,0 2.116666,-0.01749 2.116666,-0.635575 0,-0.469693 0.209204,-0.708506 0.801561,-0.915003 0.706609,-0.246324 0.780632,-0.366924 0.62488,-1.018069 -0.246605,-1.030954 -0.330671,-1.13552 -0.91289,-1.13552 -0.46555,0 -0.513551,-0.197842 -0.513551,-2.116667 0,-1.164166 0.109326,-2.116666 0.242943,-2.116666 0.909826,0 1.079974,0.345075 1.079974,2.190287 0,1.184396 0.130609,2.022104 0.356539,2.286796 0.28447,0.333272 0.307933,0.979292 0.116078,3.195833 -0.132257,1.527969 -0.203403,4.593931 -0.158104,6.813254 0.0764,3.74312 -0.08221,4.92008 -0.460121,3.41435 z M 167.24465,97.91322 c -0.002,-1.501984 -0.071,-3.207129 -0.15421,-3.789212 -0.11317,-0.791697 -0.0801,-0.958345 0.13116,-0.661458 0.15534,0.218281 0.28426,0.724297 0.28649,1.124479 0.002,0.400182 0.12312,0.727604 0.26864,0.727604 0.45219,0 0.33236,4.467934 -0.1323,4.932587 -0.35277,0.35278 -0.39719,0.0935 -0.39978,-2.334 z m 0.28977,-6.03817 c -0.0378,-0.639599 -0.0519,-0.644486 -0.42757,-0.147868 -0.37255,0.492564 -0.38846,0.484439 -0.38846,-0.198437 0,-0.463011 0.14171,-0.712029 0.40518,-0.712029 0.48119,0 0.74675,0.574355 0.57393,1.241317 -0.0902,0.347975 -0.13464,0.298066 -0.16308,-0.182983 z m -1.59205,-4.833861 c -0.12692,-0.324554 -0.54001,-1.342086 -0.91799,-2.261182 -0.80699,-1.962285 -0.89384,-2.830438 -0.25879,-2.586744 0.33578,0.128852 0.40037,0.03483 0.29861,-0.434713 -0.0714,-0.32952 -0.21742,-0.807484 -0.32446,-1.062146 -0.13821,-0.3288 -0.0723,-0.463021 0.22743,-0.463021 0.2878,0 0.47588,0.336646 0.59129,1.058334 0.12754,0.797599 0.29127,1.058333 0.66458,1.058333 0.4428,0 0.49535,0.224554 0.49535,2.116667 0,1.189 0.11232,2.116666 0.25628,2.116666 0.37231,0 0.0357,0.726615 -0.41707,0.900369 -0.23769,0.09121 -0.47257,-0.07774 -0.61523,-0.442563 z M 63.325833,86.844953 c -0.441134,-0.706371 -0.410871,-1.037823 0.205063,-2.245945 0.291041,-0.570862 0.529166,-1.369941 0.529166,-1.775735 0,-0.546187 0.129419,-0.737806 0.498309,-0.737806 0.275791,0 0.560099,-0.236294 0.636688,-0.529167 0.07611,-0.291042 0.281326,-0.529167 0.456041,-0.529167 0.201065,0 0.245475,0.16995 0.120996,0.463021 -0.35965,0.846749 -1.126344,3.09313 -1.467418,4.299479 -0.431909,1.527625 -0.582494,1.689976 -0.978845,1.05532 z m -0.324104,-3.965736 c 0,-0.291042 0.119062,-0.529167 0.264583,-0.529167 0.145521,0 0.264584,0.238125 0.264584,0.529167 0,0.291041 -0.119063,0.529166 -0.264584,0.529166 -0.145521,0 -0.264583,-0.238125 -0.264583,-0.529166 z M 163.03624,79.157656 c -0.61719,-1.098153 -0.58723,-1.619824 0.0621,-1.080939 0.19881,0.164997 0.43981,0.221649 0.53556,0.125899 0.0957,-0.09575 0.1741,0.322001 0.1741,0.928336 0,0.606338 -0.0376,1.102431 -0.0836,1.102431 -0.046,0 -0.35564,-0.484076 -0.68817,-1.075727 z M 65.118396,78.167395 c 0,-0.309562 0.42034,-0.671867 1.190625,-1.026231 1.293256,-0.594958 1.331658,-0.566315 0.900157,0.671488 -0.249039,0.714394 -0.418846,0.833231 -1.190625,0.833231 -0.691989,0 -0.900157,-0.110654 -0.900157,-0.478488 z m 2.792386,-3.731771 C 67.752013,74.17873 69.550391,72.0313 69.924298,72.0313 c 0.431075,0 0.210719,0.598519 -0.594802,1.615572 -0.82776,1.045131 -1.14966,1.224095 -1.418714,0.788752 z m 91.706328,-2.019897 c -0.16888,-0.37065 -0.30705,-0.707218 -0.30705,-0.747927 0,-0.04071 0.35719,-0.02159 0.79375,0.04248 0.83158,0.122052 1.01255,0.525549 0.47625,1.061855 -0.45858,0.458575 -0.6186,0.399348 -0.96295,-0.356408 z M 67.235062,72.163592 c 0,-0.228119 0.238784,-0.396875 0.561562,-0.396875 0.46917,0 0.507373,0.0653 0.232188,0.396875 -0.181157,0.218281 -0.433861,0.396875 -0.561562,0.396875 -0.127704,0 -0.232188,-0.178594 -0.232188,-0.396875 z m 3.549335,-2.020845 c -0.09448,-0.152871 -0.45548,-0.223713 -0.802224,-0.157427 -0.62584,0.119636 -0.630444,0.103394 -0.630444,-2.224043 v -2.34456 h 2.101051 c 1.227547,0 2.174959,0.119584 2.278819,0.287634 0.09777,0.158197 0.402455,0.228875 0.677074,0.157062 0.694753,-0.181682 0.625123,0.09337 -0.272394,1.076026 -0.424434,0.464695 -1.154041,1.377307 -1.621351,2.028023 -0.9033,1.257824 -1.450631,1.630172 -1.730531,1.177285 z m 88.281973,-0.911619 c 0.0127,-0.308227 0.0754,-0.37092 0.15985,-0.159854 0.0764,0.190995 0.067,0.419198 -0.0209,0.507119 -0.0879,0.08792 -0.15045,-0.06835 -0.13896,-0.347265 z m -83.893808,-4.30257 c 0,-0.259231 0.879904,-1.099341 1.151411,-1.099341 0.101039,0 -0.01132,0.297656 -0.2497,0.661458 -0.424945,0.648547 -0.901711,0.880071 -0.901711,0.437883 z m 78.978118,-0.570174 c 0.0899,-0.145521 0.34212,-0.264584 0.5604,-0.264584 0.21828,0 0.32329,0.119063 0.23335,0.264584 -0.0899,0.145521 -0.34211,0.264583 -0.56039,0.264583 -0.21828,0 -0.32329,-0.119062 -0.23336,-0.264583 z M 152.23246,63.1838 c -0.47295,-0.461512 -0.8599,-1.100407 -0.8599,-1.419767 0,-0.319357 -0.13891,-0.580649 -0.30868,-0.580649 -0.16977,0 -0.23828,-0.0704 -0.15223,-0.156451 0.23389,-0.233894 1.28447,0.15875 1.12315,0.419772 -0.1712,0.277008 0.88574,2.117929 1.21598,2.117929 0.13114,0 0.23845,0.119062 0.23845,0.264583 0,0.424627 -0.33823,0.250928 -1.25677,-0.645417 z M 79.405895,60.769115 c 0,-0.456991 0.644364,-1.219213 1.330759,-1.574162 0.694349,-0.359061 0.785908,-0.360172 0.785908,-0.0095 0,0.218281 -0.357188,0.581583 -0.79375,0.807339 -0.436563,0.225756 -0.79375,0.526468 -0.79375,0.668253 0,0.141785 -0.119063,0.257788 -0.264583,0.257788 -0.145521,0 -0.264584,-0.06736 -0.264584,-0.149685 z m 67.733335,-2.972398 c 0,-0.330565 0.59811,-0.846666 0.9812,-0.846666 0.27997,0 0.28298,0.101234 0.0157,0.529166 -0.32443,0.51947 -0.99694,0.733653 -0.99694,0.3175 z M 80.464229,57.362541 c 0,-0.226869 0.119062,-0.41249 0.264583,-0.41249 0.145521,0 0.264583,0.112035 0.264583,0.248967 0,0.136933 -0.119062,0.322554 -0.264583,0.412491 -0.145521,0.08994 -0.264583,-0.02209 -0.264583,-0.248968 z m 65.087501,0.116676 c 0,-0.145521 0.11906,-0.264583 0.26458,-0.264583 0.14552,0 0.26458,0.119062 0.26458,0.264583 0,0.145521 -0.11906,0.264584 -0.26458,0.264584 -0.14552,0 -0.26458,-0.119063 -0.26458,-0.264584 z m -2.11777,-1.383604 -1.17853,-0.865354 0.92054,-0.132292 c 0.86937,-0.124936 0.92507,-0.194804 1.00191,-1.25677 l 0.0814,-1.12448 h 1.18371 c 1.35843,0 1.58318,0.300199 1.31098,1.751129 -0.11868,0.632606 -0.35352,0.99907 -0.69795,1.089142 -0.36608,0.09573 -0.47265,0.282061 -0.36155,0.63211 0.0866,0.273003 0.0402,0.496369 -0.10323,0.496369 -0.14343,0 -0.42231,0.06199 -0.61975,0.13775 -0.19743,0.07576 -0.8893,-0.251661 -1.53749,-0.727604 z m 1.5886,0.208595 c 0,-0.427056 -0.37473,-0.743318 -0.60632,-0.511723 -0.20648,0.206476 0.078,0.892982 0.37004,0.892982 0.12995,0 0.23628,-0.171566 0.23628,-0.381259 z M 85.491312,55.230259 c 0,-0.27251 0.173408,-0.40228 0.463021,-0.346506 0.557699,0.107402 0.522533,0.576971 -0.05217,0.696634 -0.239707,0.04991 -0.41085,-0.09594 -0.410851,-0.350128 z M 138.871,53.359134 c -1.0014,-0.543269 -0.9433,-1.016283 0.0992,-0.807781 0.45475,0.09095 0.931,0.165364 1.05833,0.165364 0.12733,0 0.23151,0.238125 0.23151,0.529167 0,0.62352 -0.38989,0.655307 -1.38906,0.11325 z m -49.068422,-0.23182 c -0.250407,-0.28502 -0.243123,-0.392123 0.0339,-0.498428 0.356846,-0.136935 0.946496,0.280408 0.946496,0.669915 0,0.336618 -0.63096,0.226253 -0.9804,-0.171487 z m 45.879962,-1.195311 c -1.59289,-0.308385 -1.69764,-0.701022 -0.18701,-0.701022 1.10158,0 1.32495,0.08063 1.32495,0.478285 0,0.263057 -0.0298,0.464593 -0.0661,0.447858 -0.0364,-0.01672 -0.51868,-0.118039 -1.07179,-0.225121 z M 93.428812,51.289817 c 0,-0.348234 0.18833,-0.705422 0.418515,-0.79375 0.61764,-0.237011 1.774483,-0.187883 2.220724,0.09431 0.303956,0.192217 0.128392,0.365601 -0.79375,0.783889 -1.537591,0.697457 -1.845489,0.683368 -1.845489,-0.08445 z m 43.127078,-1.615808 c 0,-0.881943 0.0441,-0.926042 0.92605,-0.926042 0.84493,0 0.92604,0.06704 0.92604,0.765443 0,0.778301 -0.38153,1.086641 -1.34456,1.086641 -0.40364,0 -0.50753,-0.18955 -0.50753,-0.926042 z M 90.782978,49.563358 c 0,-0.899126 0.306785,-1.344557 0.926042,-1.344557 0.619257,0 0.926042,0.445431 0.926042,1.344557 0,0.40364 -0.189551,0.507526 -0.926042,0.507526 -0.736492,0 -0.926042,-0.103886 -0.926042,-0.507526 z m 37.306252,-0.31091 c -0.3638,-0.128137 -1.34023,-0.360825 -2.16982,-0.517083 -1.47652,-0.278106 -1.50209,-0.297883 -1.21104,-0.936678 0.22282,-0.489026 0.21957,-0.730345 -0.013,-0.962898 -0.17067,-0.170677 -0.31032,-0.82229 -0.31032,-1.44803 v -1.137708 h 2.64583 2.64584 l -0.008,2.182812 c -0.005,1.394315 -0.13538,2.350069 -0.3599,2.645834 -0.19331,0.254661 -0.39788,0.450355 -0.4546,0.434874 -0.0567,-0.01548 -0.40078,-0.132987 -0.76458,-0.261123 z m -27.64896,-0.470389 -1.322917,-0.166383 -0.07685,-2.182813 -0.07685,-2.182812 h 2.656527 2.65654 v 1.058333 c 0,0.88754 0.0868,1.058334 0.53769,1.058334 0.31455,0 0.63106,0.247049 0.76268,0.595312 0.26677,0.705853 0.14357,0.992187 -0.42692,0.992187 -0.23003,0 -0.55043,0.170498 -0.71199,0.378884 -0.35961,0.46382 -2.21929,0.672658 -3.99792,0.448958 z m -2.827735,-0.214831 c 0.190995,-0.07643 0.419201,-0.06703 0.507119,0.02088 0.08792,0.08792 -0.06835,0.150452 -0.347265,0.138964 -0.308227,-0.0127 -0.37092,-0.07539 -0.159854,-0.159851 z m 10.278085,-1.090147 c 0.075,-0.286811 0.007,-0.601472 -0.15126,-0.699243 -0.1582,-0.09777 -0.28763,-0.706522 -0.28763,-1.352778 v -1.175009 h 6.87916 6.87917 v 1.058333 1.058334 l 1.12448,0.02148 c 1.09096,0.02085 1.10351,0.03081 0.42084,0.334182 -0.38701,0.171979 -0.9422,0.528582 -1.23377,0.792451 -0.46067,0.416896 -0.81048,0.4553 -2.6698,0.29311 -1.87568,-0.163613 -2.13967,-0.249856 -2.13967,-0.699037 0,-1.250413 -0.44266,-1.53594 -2.38125,-1.53594 -1.5816,0 -1.87361,0.07501 -2.12571,0.546078 -0.2177,0.406768 -0.21046,0.644644 0.0284,0.932437 0.17636,0.212495 0.27392,0.428673 0.2168,0.480391 -0.0571,0.05172 -1.13711,0.177882 -2.39998,0.28036 -2.19931,0.17847 -2.29038,0.164335 -2.15977,-0.335153 z"
         id="path496" />
    </g>
  </g>
</svg>
